G75*
%MOIN*%
%OFA0B0*%
%FSLAX25Y25*%
%IPPOS*%
%LPD*%
%AMOC8*
5,1,8,0,0,1.08239X$1,22.5*
%
%ADD10R,0.06299X0.07087*%
%ADD11R,0.03937X0.04331*%
%ADD12R,0.06299X0.05512*%
%ADD13R,0.04331X0.03937*%
%ADD14R,0.01200X0.05500*%
%ADD15R,0.06300X0.08700*%
%ADD16R,0.02400X0.08700*%
%ADD17R,0.02165X0.01378*%
%ADD18R,0.04424X0.01969*%
%ADD19R,0.01969X0.04424*%
%ADD20C,0.01000*%
%ADD21C,0.00800*%
%ADD22C,0.01200*%
%ADD23C,0.02978*%
D10*
X0028263Y0089308D03*
X0039287Y0089308D03*
D11*
X0046775Y0091654D03*
X0046775Y0084962D03*
X0052275Y0051654D03*
X0057775Y0051654D03*
X0057775Y0044962D03*
X0052275Y0044962D03*
X0063775Y0044962D03*
X0063775Y0051654D03*
D12*
X0071775Y0050820D03*
X0071775Y0039796D03*
D13*
X0034121Y0083308D03*
X0027428Y0083308D03*
D14*
X0034975Y0036908D03*
X0036975Y0036908D03*
X0038975Y0036908D03*
X0040875Y0036908D03*
X0042875Y0036908D03*
X0044875Y0036908D03*
X0046775Y0036908D03*
X0048775Y0036908D03*
X0050775Y0036908D03*
X0052775Y0036908D03*
X0054675Y0036908D03*
X0056675Y0036908D03*
X0058675Y0036908D03*
X0060575Y0036908D03*
X0062575Y0036908D03*
X0064575Y0036908D03*
D15*
X0024575Y0027208D03*
X0074975Y0027208D03*
D16*
X0044775Y0047508D03*
X0039775Y0047508D03*
X0034775Y0047508D03*
X0029775Y0047508D03*
X0029775Y0074008D03*
X0034775Y0074008D03*
X0039775Y0074008D03*
X0044775Y0074008D03*
D17*
X0050212Y0067147D03*
X0050212Y0064588D03*
X0050212Y0062028D03*
X0050212Y0062028D03*
X0050212Y0059469D03*
X0067338Y0059469D03*
X0067338Y0062028D03*
X0067338Y0064588D03*
X0067338Y0067147D03*
D18*
X0063255Y0073434D03*
X0063255Y0076584D03*
X0063255Y0079733D03*
X0063255Y0082883D03*
X0063255Y0086032D03*
X0063255Y0089182D03*
X0054324Y0089182D03*
X0054294Y0086032D03*
X0054294Y0082883D03*
X0054294Y0079733D03*
X0054294Y0076584D03*
X0054294Y0073434D03*
D19*
X0058775Y0073040D03*
X0058775Y0089576D03*
D20*
X0058775Y0093308D01*
X0057775Y0094308D01*
X0047775Y0094308D01*
X0047775Y0092654D01*
X0046775Y0091654D01*
X0047775Y0094308D02*
X0031775Y0094308D01*
X0028263Y0090796D01*
X0028263Y0089308D01*
X0028263Y0084796D01*
X0027775Y0084308D01*
X0027428Y0083962D01*
X0027428Y0083308D01*
X0027775Y0084308D02*
X0027775Y0076008D01*
X0029775Y0074008D01*
X0028428Y0075354D01*
X0029775Y0075808D02*
X0029775Y0074008D01*
X0029775Y0070808D01*
X0032275Y0067808D02*
X0032275Y0078896D01*
X0032775Y0079396D01*
X0032775Y0082308D01*
X0033775Y0083308D01*
X0034121Y0083308D01*
X0037986Y0087173D01*
X0039458Y0087173D01*
X0046332Y0081747D01*
X0046332Y0084519D01*
X0046775Y0084962D01*
X0046332Y0081747D02*
X0048775Y0079820D01*
X0044775Y0074008D02*
X0044775Y0073308D01*
X0042175Y0068708D02*
X0040775Y0067308D01*
X0039775Y0067308D01*
X0038175Y0065708D01*
X0035775Y0065708D01*
X0035375Y0065308D01*
X0035375Y0059308D01*
X0037775Y0056908D01*
X0045375Y0056908D01*
X0047929Y0059462D01*
X0047929Y0062028D01*
X0050212Y0062028D01*
X0050652Y0061588D02*
X0052494Y0061588D01*
X0054994Y0061588D01*
X0055775Y0060808D01*
X0052494Y0061588D02*
X0052494Y0059746D01*
X0057775Y0054465D01*
X0057775Y0051654D01*
X0057275Y0053308D01*
X0062275Y0053308D02*
X0063775Y0051654D01*
X0063775Y0052208D02*
X0063775Y0057208D01*
X0054294Y0066689D01*
X0054294Y0073434D01*
X0053315Y0073373D01*
X0052275Y0073308D01*
X0054018Y0076308D02*
X0054294Y0076584D01*
X0056775Y0076584D01*
X0058775Y0078584D01*
X0058775Y0080308D01*
X0058795Y0080308D01*
X0060505Y0082017D01*
X0062390Y0082017D01*
X0063255Y0082883D01*
X0063255Y0086032D01*
X0064221Y0088217D02*
X0065965Y0088217D01*
X0066775Y0087407D01*
X0066775Y0073308D01*
X0065775Y0072308D01*
X0063255Y0072308D01*
X0063255Y0070772D01*
X0064564Y0069463D01*
X0064564Y0064802D01*
X0067338Y0062028D01*
X0072495Y0062028D01*
X0072495Y0053588D01*
X0073519Y0052564D01*
X0071775Y0050820D01*
X0069775Y0050808D01*
X0069633Y0050820D02*
X0063775Y0044962D01*
X0057775Y0044962D01*
X0052275Y0044962D01*
X0052275Y0043308D01*
X0052275Y0044962D02*
X0052275Y0045808D01*
X0057275Y0045808D02*
X0057775Y0044962D01*
X0062275Y0045808D02*
X0063775Y0044962D01*
X0064775Y0045808D01*
X0072275Y0040808D02*
X0071775Y0039796D01*
X0071775Y0036308D01*
X0069775Y0034308D01*
X0068775Y0034308D01*
X0066775Y0032308D01*
X0044775Y0032308D01*
X0042775Y0034308D01*
X0042775Y0036908D01*
X0044875Y0036908D02*
X0044775Y0038308D01*
X0044775Y0047508D01*
X0047775Y0053308D02*
X0045775Y0055308D01*
X0036775Y0055308D01*
X0033775Y0058308D01*
X0033775Y0066308D01*
X0034775Y0067308D01*
X0036775Y0067308D01*
X0039775Y0070308D01*
X0042175Y0068708D02*
X0042175Y0078855D01*
X0040222Y0080808D01*
X0038675Y0080808D01*
X0037175Y0079308D01*
X0035775Y0079308D01*
X0035775Y0075008D01*
X0034775Y0074008D01*
X0032275Y0067808D02*
X0031775Y0067308D01*
X0031775Y0057896D01*
X0037275Y0052396D01*
X0037275Y0040396D01*
X0037075Y0040196D01*
X0037075Y0039308D01*
X0036975Y0039208D01*
X0036975Y0036908D01*
X0038975Y0036908D02*
X0038975Y0046708D01*
X0034775Y0047508D02*
X0034775Y0038308D01*
X0034975Y0036908D01*
X0044775Y0035808D02*
X0044820Y0036304D01*
X0044875Y0036908D01*
X0046975Y0037108D02*
X0046975Y0040155D01*
X0047775Y0040955D01*
X0047775Y0053308D01*
X0051775Y0057308D02*
X0051775Y0057906D01*
X0050212Y0059469D01*
X0051775Y0057308D02*
X0052275Y0056808D01*
X0052275Y0051654D01*
X0044712Y0058508D02*
X0046329Y0060125D01*
X0046329Y0062691D01*
X0047555Y0063917D01*
X0049542Y0063917D01*
X0050212Y0064588D01*
X0049542Y0066477D02*
X0047852Y0066477D01*
X0043683Y0062308D01*
X0041520Y0065508D02*
X0042469Y0066457D01*
X0043726Y0066457D01*
X0041520Y0065508D02*
X0040553Y0065508D01*
X0037775Y0062730D01*
X0037775Y0059308D01*
X0038575Y0058508D01*
X0044712Y0058508D01*
X0049542Y0066477D02*
X0050212Y0067147D01*
X0057286Y0068308D02*
X0058775Y0069797D01*
X0058775Y0073040D01*
X0056775Y0076584D02*
X0063255Y0076584D01*
X0063255Y0073434D02*
X0063255Y0072308D01*
X0063381Y0073308D02*
X0063255Y0073434D01*
X0066775Y0059469D02*
X0063775Y0056469D01*
X0073519Y0052564D02*
X0073775Y0052820D01*
X0071775Y0039796D02*
X0072275Y0038308D01*
X0039458Y0087173D02*
X0039287Y0089308D01*
X0035592Y0083308D02*
X0034121Y0083308D01*
X0035775Y0082962D01*
X0058775Y0089576D02*
X0059168Y0089182D01*
X0063255Y0089182D01*
X0064221Y0088217D01*
D21*
X0067338Y0064588D02*
X0067338Y0062028D01*
X0067338Y0059469D02*
X0066775Y0059469D01*
X0063775Y0056469D02*
X0063775Y0052208D01*
X0063775Y0051654D01*
X0069633Y0050820D02*
X0071775Y0050820D01*
X0070713Y0040858D02*
X0071775Y0039796D01*
X0050652Y0061588D02*
X0050212Y0062028D01*
X0049932Y0062308D01*
X0039775Y0070308D02*
X0039775Y0074008D01*
X0038064Y0063019D02*
X0037775Y0062730D01*
X0039775Y0047508D02*
X0038975Y0046708D01*
X0040875Y0036908D02*
X0040775Y0036808D01*
X0040775Y0033308D01*
X0039775Y0032308D01*
X0037775Y0032308D01*
X0036975Y0033108D01*
X0036975Y0036908D01*
X0040875Y0036908D02*
X0042775Y0036908D01*
X0042875Y0036908D01*
X0044216Y0036908D01*
X0044820Y0036304D01*
X0046775Y0036908D02*
X0046975Y0037108D01*
D22*
X0043683Y0062308D02*
X0042775Y0062308D01*
X0046375Y0070608D02*
X0050550Y0070608D01*
X0053315Y0073373D01*
X0053529Y0075818D02*
X0051502Y0075818D01*
X0050682Y0074998D01*
X0050073Y0074308D01*
X0048875Y0074308D01*
X0048875Y0079720D01*
X0048775Y0079820D01*
X0053529Y0075818D02*
X0054018Y0076308D01*
X0046375Y0070608D02*
X0044775Y0072208D01*
X0044775Y0074008D01*
X0067338Y0067147D02*
X0071286Y0071095D01*
X0071286Y0090108D01*
X0068575Y0092819D01*
D23*
X0068575Y0092819D03*
X0057286Y0068308D03*
X0055775Y0060808D03*
X0048875Y0074308D03*
X0043726Y0066457D03*
X0042775Y0062308D03*
M02*
