G75*
%MOIN*%
%OFA0B0*%
%FSLAX25Y25*%
%IPPOS*%
%LPD*%
%AMOC8*
5,1,8,0,0,1.08239X$1,22.5*
%
%ADD10C,0.02978*%
%ADD11C,0.00800*%
%ADD12C,0.01200*%
D10*
X0042775Y0062308D03*
X0043726Y0066457D03*
X0048875Y0074308D03*
X0057286Y0068308D03*
X0055775Y0060808D03*
X0068575Y0092819D03*
D11*
X0057286Y0068308D02*
X0055775Y0066797D01*
X0055775Y0060808D01*
X0063675Y0036008D02*
X0063675Y0035708D01*
D12*
X0024575Y0024808D02*
X0024575Y0090208D01*
X0026475Y0087808D02*
X0026475Y0026508D01*
X0024575Y0024808D02*
X0024577Y0024717D01*
X0024583Y0024626D01*
X0024592Y0024536D01*
X0024605Y0024446D01*
X0024622Y0024357D01*
X0024642Y0024268D01*
X0024666Y0024180D01*
X0024694Y0024094D01*
X0024725Y0024008D01*
X0024760Y0023924D01*
X0024799Y0023842D01*
X0024840Y0023761D01*
X0024885Y0023682D01*
X0024933Y0023605D01*
X0024985Y0023530D01*
X0025039Y0023457D01*
X0025096Y0023386D01*
X0025156Y0023318D01*
X0025219Y0023252D01*
X0025285Y0023189D01*
X0025353Y0023129D01*
X0025424Y0023072D01*
X0025497Y0023018D01*
X0025572Y0022966D01*
X0025649Y0022918D01*
X0025728Y0022873D01*
X0025809Y0022832D01*
X0025891Y0022793D01*
X0025975Y0022758D01*
X0026061Y0022727D01*
X0026147Y0022699D01*
X0026235Y0022675D01*
X0026324Y0022655D01*
X0026413Y0022638D01*
X0026503Y0022625D01*
X0026593Y0022616D01*
X0026684Y0022610D01*
X0026775Y0022608D01*
X0072975Y0022608D01*
X0073051Y0022610D01*
X0073127Y0022616D01*
X0073202Y0022625D01*
X0073277Y0022639D01*
X0073351Y0022656D01*
X0073424Y0022677D01*
X0073496Y0022701D01*
X0073567Y0022730D01*
X0073636Y0022761D01*
X0073703Y0022796D01*
X0073768Y0022835D01*
X0073832Y0022877D01*
X0073893Y0022922D01*
X0073952Y0022970D01*
X0074008Y0023021D01*
X0074062Y0023075D01*
X0074113Y0023131D01*
X0074161Y0023190D01*
X0074206Y0023251D01*
X0074248Y0023315D01*
X0074287Y0023380D01*
X0074322Y0023447D01*
X0074353Y0023516D01*
X0074382Y0023587D01*
X0074406Y0023659D01*
X0074427Y0023732D01*
X0074444Y0023806D01*
X0074458Y0023881D01*
X0074467Y0023956D01*
X0074473Y0024032D01*
X0074475Y0024108D01*
X0074475Y0086408D01*
X0072675Y0085908D02*
X0072675Y0025608D01*
X0072673Y0025541D01*
X0072667Y0025474D01*
X0072658Y0025407D01*
X0072645Y0025341D01*
X0072628Y0025276D01*
X0072608Y0025212D01*
X0072584Y0025149D01*
X0072556Y0025087D01*
X0072525Y0025028D01*
X0072491Y0024970D01*
X0072454Y0024914D01*
X0072413Y0024860D01*
X0072370Y0024808D01*
X0072324Y0024759D01*
X0072275Y0024713D01*
X0072223Y0024670D01*
X0072169Y0024629D01*
X0072113Y0024592D01*
X0072055Y0024558D01*
X0071996Y0024527D01*
X0071934Y0024499D01*
X0071871Y0024475D01*
X0071807Y0024455D01*
X0071742Y0024438D01*
X0071676Y0024425D01*
X0071609Y0024416D01*
X0071542Y0024410D01*
X0071475Y0024408D01*
X0028575Y0024408D01*
X0028486Y0024410D01*
X0028397Y0024416D01*
X0028308Y0024425D01*
X0028220Y0024438D01*
X0028133Y0024455D01*
X0028046Y0024476D01*
X0027960Y0024500D01*
X0027875Y0024528D01*
X0027792Y0024559D01*
X0027710Y0024594D01*
X0027630Y0024633D01*
X0027551Y0024675D01*
X0027474Y0024720D01*
X0027399Y0024768D01*
X0027326Y0024820D01*
X0027256Y0024874D01*
X0027188Y0024932D01*
X0027122Y0024992D01*
X0027059Y0025055D01*
X0026999Y0025121D01*
X0026941Y0025189D01*
X0026887Y0025259D01*
X0026835Y0025332D01*
X0026787Y0025407D01*
X0026742Y0025484D01*
X0026700Y0025563D01*
X0026661Y0025643D01*
X0026626Y0025725D01*
X0026595Y0025808D01*
X0026567Y0025893D01*
X0026543Y0025979D01*
X0026522Y0026066D01*
X0026505Y0026153D01*
X0026492Y0026241D01*
X0026483Y0026330D01*
X0026477Y0026419D01*
X0026475Y0026508D01*
X0028375Y0027608D02*
X0028375Y0087008D01*
X0026475Y0087808D02*
X0026477Y0087906D01*
X0026483Y0088004D01*
X0026492Y0088102D01*
X0026506Y0088199D01*
X0026523Y0088296D01*
X0026544Y0088392D01*
X0026569Y0088487D01*
X0026597Y0088581D01*
X0026630Y0088673D01*
X0026665Y0088765D01*
X0026705Y0088855D01*
X0026747Y0088943D01*
X0026794Y0089030D01*
X0026843Y0089114D01*
X0026896Y0089197D01*
X0026952Y0089277D01*
X0027012Y0089356D01*
X0027074Y0089432D01*
X0027139Y0089505D01*
X0027207Y0089576D01*
X0027278Y0089644D01*
X0027351Y0089709D01*
X0027427Y0089771D01*
X0027506Y0089831D01*
X0027586Y0089887D01*
X0027669Y0089940D01*
X0027753Y0089989D01*
X0027840Y0090036D01*
X0027928Y0090078D01*
X0028018Y0090118D01*
X0028110Y0090153D01*
X0028202Y0090186D01*
X0028296Y0090214D01*
X0028391Y0090239D01*
X0028487Y0090260D01*
X0028584Y0090277D01*
X0028681Y0090291D01*
X0028779Y0090300D01*
X0028877Y0090306D01*
X0028975Y0090308D01*
X0070575Y0090308D01*
X0070075Y0088508D02*
X0029875Y0088508D01*
X0029799Y0088506D01*
X0029723Y0088500D01*
X0029648Y0088491D01*
X0029573Y0088477D01*
X0029499Y0088460D01*
X0029426Y0088439D01*
X0029354Y0088415D01*
X0029283Y0088386D01*
X0029214Y0088355D01*
X0029147Y0088320D01*
X0029082Y0088281D01*
X0029018Y0088239D01*
X0028957Y0088194D01*
X0028898Y0088146D01*
X0028842Y0088095D01*
X0028788Y0088041D01*
X0028737Y0087985D01*
X0028689Y0087926D01*
X0028644Y0087865D01*
X0028602Y0087801D01*
X0028563Y0087736D01*
X0028528Y0087669D01*
X0028497Y0087600D01*
X0028468Y0087529D01*
X0028444Y0087457D01*
X0028423Y0087384D01*
X0028406Y0087310D01*
X0028392Y0087235D01*
X0028383Y0087160D01*
X0028377Y0087084D01*
X0028375Y0087008D01*
X0030175Y0085208D02*
X0030175Y0029508D01*
X0030177Y0029432D01*
X0030183Y0029356D01*
X0030192Y0029281D01*
X0030206Y0029206D01*
X0030223Y0029132D01*
X0030244Y0029059D01*
X0030268Y0028987D01*
X0030297Y0028916D01*
X0030328Y0028847D01*
X0030363Y0028780D01*
X0030402Y0028715D01*
X0030444Y0028651D01*
X0030489Y0028590D01*
X0030537Y0028531D01*
X0030588Y0028475D01*
X0030642Y0028421D01*
X0030698Y0028370D01*
X0030757Y0028322D01*
X0030818Y0028277D01*
X0030882Y0028235D01*
X0030947Y0028196D01*
X0031014Y0028161D01*
X0031083Y0028130D01*
X0031154Y0028101D01*
X0031226Y0028077D01*
X0031299Y0028056D01*
X0031373Y0028039D01*
X0031448Y0028025D01*
X0031523Y0028016D01*
X0031599Y0028010D01*
X0031675Y0028008D01*
X0066975Y0028008D01*
X0067064Y0028010D01*
X0067153Y0028016D01*
X0067242Y0028025D01*
X0067330Y0028038D01*
X0067417Y0028055D01*
X0067504Y0028076D01*
X0067590Y0028100D01*
X0067675Y0028128D01*
X0067758Y0028159D01*
X0067840Y0028194D01*
X0067920Y0028233D01*
X0067999Y0028275D01*
X0068076Y0028320D01*
X0068151Y0028368D01*
X0068224Y0028420D01*
X0068294Y0028474D01*
X0068362Y0028532D01*
X0068428Y0028592D01*
X0068491Y0028655D01*
X0068551Y0028721D01*
X0068609Y0028789D01*
X0068663Y0028859D01*
X0068715Y0028932D01*
X0068763Y0029007D01*
X0068808Y0029084D01*
X0068850Y0029163D01*
X0068889Y0029243D01*
X0068924Y0029325D01*
X0068955Y0029408D01*
X0068983Y0029493D01*
X0069007Y0029579D01*
X0069028Y0029666D01*
X0069045Y0029753D01*
X0069058Y0029841D01*
X0069067Y0029930D01*
X0069073Y0030019D01*
X0069075Y0030108D01*
X0069075Y0083108D01*
X0070875Y0085008D02*
X0070873Y0085089D01*
X0070867Y0085170D01*
X0070858Y0085250D01*
X0070844Y0085330D01*
X0070827Y0085409D01*
X0070806Y0085487D01*
X0070782Y0085564D01*
X0070753Y0085640D01*
X0070721Y0085714D01*
X0070686Y0085787D01*
X0070647Y0085858D01*
X0070605Y0085927D01*
X0070560Y0085994D01*
X0070511Y0086059D01*
X0070460Y0086121D01*
X0070405Y0086181D01*
X0070348Y0086238D01*
X0070288Y0086293D01*
X0070226Y0086344D01*
X0070161Y0086393D01*
X0070094Y0086438D01*
X0070025Y0086480D01*
X0069954Y0086519D01*
X0069881Y0086554D01*
X0069807Y0086586D01*
X0069731Y0086615D01*
X0069654Y0086639D01*
X0069576Y0086660D01*
X0069497Y0086677D01*
X0069417Y0086691D01*
X0069337Y0086700D01*
X0069256Y0086706D01*
X0069175Y0086708D01*
X0031675Y0086708D01*
X0031599Y0086706D01*
X0031523Y0086700D01*
X0031448Y0086691D01*
X0031373Y0086677D01*
X0031299Y0086660D01*
X0031226Y0086639D01*
X0031154Y0086615D01*
X0031083Y0086586D01*
X0031014Y0086555D01*
X0030947Y0086520D01*
X0030882Y0086481D01*
X0030818Y0086439D01*
X0030757Y0086394D01*
X0030698Y0086346D01*
X0030642Y0086295D01*
X0030588Y0086241D01*
X0030537Y0086185D01*
X0030489Y0086126D01*
X0030444Y0086065D01*
X0030402Y0086001D01*
X0030363Y0085936D01*
X0030328Y0085869D01*
X0030297Y0085800D01*
X0030268Y0085729D01*
X0030244Y0085657D01*
X0030223Y0085584D01*
X0030206Y0085510D01*
X0030192Y0085435D01*
X0030183Y0085360D01*
X0030177Y0085284D01*
X0030175Y0085208D01*
X0031975Y0083308D02*
X0031975Y0031308D01*
X0031977Y0031232D01*
X0031983Y0031156D01*
X0031992Y0031081D01*
X0032006Y0031006D01*
X0032023Y0030932D01*
X0032044Y0030859D01*
X0032068Y0030787D01*
X0032097Y0030716D01*
X0032128Y0030647D01*
X0032163Y0030580D01*
X0032202Y0030515D01*
X0032244Y0030451D01*
X0032289Y0030390D01*
X0032337Y0030331D01*
X0032388Y0030275D01*
X0032442Y0030221D01*
X0032498Y0030170D01*
X0032557Y0030122D01*
X0032618Y0030077D01*
X0032682Y0030035D01*
X0032747Y0029996D01*
X0032814Y0029961D01*
X0032883Y0029930D01*
X0032954Y0029901D01*
X0033026Y0029877D01*
X0033099Y0029856D01*
X0033173Y0029839D01*
X0033248Y0029825D01*
X0033323Y0029816D01*
X0033399Y0029810D01*
X0033475Y0029808D01*
X0065575Y0029808D01*
X0065656Y0029810D01*
X0065737Y0029816D01*
X0065817Y0029825D01*
X0065897Y0029839D01*
X0065976Y0029856D01*
X0066054Y0029877D01*
X0066131Y0029901D01*
X0066207Y0029930D01*
X0066281Y0029962D01*
X0066354Y0029997D01*
X0066425Y0030036D01*
X0066494Y0030078D01*
X0066561Y0030123D01*
X0066626Y0030172D01*
X0066688Y0030223D01*
X0066748Y0030278D01*
X0066805Y0030335D01*
X0066860Y0030395D01*
X0066911Y0030457D01*
X0066960Y0030522D01*
X0067005Y0030589D01*
X0067047Y0030658D01*
X0067086Y0030729D01*
X0067121Y0030802D01*
X0067153Y0030876D01*
X0067182Y0030952D01*
X0067206Y0031029D01*
X0067227Y0031107D01*
X0067244Y0031186D01*
X0067258Y0031266D01*
X0067267Y0031346D01*
X0067273Y0031427D01*
X0067275Y0031508D01*
X0067275Y0080708D01*
X0065475Y0078308D02*
X0065475Y0033608D01*
X0065473Y0033521D01*
X0065467Y0033434D01*
X0065458Y0033347D01*
X0065445Y0033261D01*
X0065428Y0033175D01*
X0065407Y0033090D01*
X0065382Y0033007D01*
X0065354Y0032924D01*
X0065323Y0032843D01*
X0065288Y0032763D01*
X0065249Y0032685D01*
X0065207Y0032608D01*
X0065162Y0032533D01*
X0065113Y0032461D01*
X0065062Y0032390D01*
X0065007Y0032322D01*
X0064950Y0032257D01*
X0064889Y0032194D01*
X0064826Y0032133D01*
X0064761Y0032076D01*
X0064693Y0032021D01*
X0064622Y0031970D01*
X0064550Y0031921D01*
X0064475Y0031876D01*
X0064398Y0031834D01*
X0064320Y0031795D01*
X0064240Y0031760D01*
X0064159Y0031729D01*
X0064076Y0031701D01*
X0063993Y0031676D01*
X0063908Y0031655D01*
X0063822Y0031638D01*
X0063736Y0031625D01*
X0063649Y0031616D01*
X0063562Y0031610D01*
X0063475Y0031608D01*
X0036275Y0031608D01*
X0036177Y0031610D01*
X0036079Y0031616D01*
X0035981Y0031625D01*
X0035884Y0031639D01*
X0035787Y0031656D01*
X0035691Y0031677D01*
X0035596Y0031702D01*
X0035502Y0031730D01*
X0035410Y0031763D01*
X0035318Y0031798D01*
X0035228Y0031838D01*
X0035140Y0031880D01*
X0035053Y0031927D01*
X0034969Y0031976D01*
X0034886Y0032029D01*
X0034806Y0032085D01*
X0034727Y0032145D01*
X0034651Y0032207D01*
X0034578Y0032272D01*
X0034507Y0032340D01*
X0034439Y0032411D01*
X0034374Y0032484D01*
X0034312Y0032560D01*
X0034252Y0032639D01*
X0034196Y0032719D01*
X0034143Y0032802D01*
X0034094Y0032886D01*
X0034047Y0032973D01*
X0034005Y0033061D01*
X0033965Y0033151D01*
X0033930Y0033243D01*
X0033897Y0033335D01*
X0033869Y0033429D01*
X0033844Y0033524D01*
X0033823Y0033620D01*
X0033806Y0033717D01*
X0033792Y0033814D01*
X0033783Y0033912D01*
X0033777Y0034010D01*
X0033775Y0034108D01*
X0033775Y0081208D01*
X0033777Y0081293D01*
X0033783Y0081378D01*
X0033792Y0081463D01*
X0033806Y0081547D01*
X0033823Y0081631D01*
X0033843Y0081713D01*
X0033868Y0081795D01*
X0033896Y0081876D01*
X0033928Y0081955D01*
X0033963Y0082032D01*
X0034002Y0082108D01*
X0034044Y0082183D01*
X0034089Y0082255D01*
X0034138Y0082325D01*
X0034190Y0082393D01*
X0034244Y0082458D01*
X0034302Y0082521D01*
X0034362Y0082581D01*
X0034425Y0082639D01*
X0034490Y0082693D01*
X0034558Y0082745D01*
X0034628Y0082794D01*
X0034700Y0082839D01*
X0034775Y0082881D01*
X0034851Y0082920D01*
X0034928Y0082955D01*
X0035007Y0082987D01*
X0035088Y0083015D01*
X0035170Y0083040D01*
X0035252Y0083060D01*
X0035336Y0083077D01*
X0035420Y0083091D01*
X0035505Y0083100D01*
X0035590Y0083106D01*
X0035675Y0083108D01*
X0064875Y0083108D01*
X0067275Y0084908D02*
X0067358Y0084906D01*
X0067441Y0084900D01*
X0067524Y0084891D01*
X0067606Y0084877D01*
X0067687Y0084860D01*
X0067768Y0084839D01*
X0067847Y0084815D01*
X0067925Y0084786D01*
X0068002Y0084755D01*
X0068077Y0084719D01*
X0068151Y0084681D01*
X0068223Y0084638D01*
X0068292Y0084593D01*
X0068360Y0084544D01*
X0068425Y0084493D01*
X0068488Y0084438D01*
X0068548Y0084381D01*
X0068605Y0084321D01*
X0068660Y0084258D01*
X0068711Y0084193D01*
X0068760Y0084125D01*
X0068805Y0084056D01*
X0068848Y0083984D01*
X0068886Y0083910D01*
X0068922Y0083835D01*
X0068953Y0083758D01*
X0068982Y0083680D01*
X0069006Y0083601D01*
X0069027Y0083520D01*
X0069044Y0083439D01*
X0069058Y0083357D01*
X0069067Y0083274D01*
X0069073Y0083191D01*
X0069075Y0083108D01*
X0067275Y0084908D02*
X0033575Y0084908D01*
X0033496Y0084906D01*
X0033418Y0084900D01*
X0033340Y0084891D01*
X0033263Y0084877D01*
X0033186Y0084860D01*
X0033111Y0084839D01*
X0033036Y0084814D01*
X0032963Y0084786D01*
X0032891Y0084754D01*
X0032821Y0084719D01*
X0032752Y0084680D01*
X0032686Y0084638D01*
X0032622Y0084593D01*
X0032560Y0084545D01*
X0032501Y0084494D01*
X0032444Y0084439D01*
X0032389Y0084382D01*
X0032338Y0084323D01*
X0032290Y0084261D01*
X0032245Y0084197D01*
X0032203Y0084131D01*
X0032164Y0084062D01*
X0032129Y0083992D01*
X0032097Y0083920D01*
X0032069Y0083847D01*
X0032044Y0083772D01*
X0032023Y0083697D01*
X0032006Y0083620D01*
X0031992Y0083543D01*
X0031983Y0083465D01*
X0031977Y0083387D01*
X0031975Y0083308D01*
X0035575Y0078608D02*
X0035575Y0036008D01*
X0037375Y0037308D02*
X0037375Y0076508D01*
X0039175Y0075708D02*
X0039175Y0039208D01*
X0037375Y0037308D02*
X0037377Y0037219D01*
X0037383Y0037130D01*
X0037392Y0037041D01*
X0037405Y0036953D01*
X0037422Y0036866D01*
X0037443Y0036779D01*
X0037467Y0036693D01*
X0037495Y0036608D01*
X0037526Y0036525D01*
X0037561Y0036443D01*
X0037600Y0036363D01*
X0037642Y0036284D01*
X0037687Y0036207D01*
X0037735Y0036132D01*
X0037787Y0036059D01*
X0037841Y0035989D01*
X0037899Y0035921D01*
X0037959Y0035855D01*
X0038022Y0035792D01*
X0038088Y0035732D01*
X0038156Y0035674D01*
X0038226Y0035620D01*
X0038299Y0035568D01*
X0038374Y0035520D01*
X0038451Y0035475D01*
X0038530Y0035433D01*
X0038610Y0035394D01*
X0038692Y0035359D01*
X0038775Y0035328D01*
X0038860Y0035300D01*
X0038946Y0035276D01*
X0039033Y0035255D01*
X0039120Y0035238D01*
X0039208Y0035225D01*
X0039297Y0035216D01*
X0039386Y0035210D01*
X0039475Y0035208D01*
X0059475Y0035208D01*
X0058575Y0037008D02*
X0041375Y0037008D01*
X0041284Y0037010D01*
X0041193Y0037016D01*
X0041103Y0037025D01*
X0041013Y0037038D01*
X0040924Y0037055D01*
X0040835Y0037075D01*
X0040747Y0037099D01*
X0040661Y0037127D01*
X0040575Y0037158D01*
X0040491Y0037193D01*
X0040409Y0037232D01*
X0040328Y0037273D01*
X0040249Y0037318D01*
X0040172Y0037366D01*
X0040097Y0037418D01*
X0040024Y0037472D01*
X0039953Y0037529D01*
X0039885Y0037589D01*
X0039819Y0037652D01*
X0039756Y0037718D01*
X0039696Y0037786D01*
X0039639Y0037857D01*
X0039585Y0037930D01*
X0039533Y0038005D01*
X0039485Y0038082D01*
X0039440Y0038161D01*
X0039399Y0038242D01*
X0039360Y0038324D01*
X0039325Y0038408D01*
X0039294Y0038494D01*
X0039266Y0038580D01*
X0039242Y0038668D01*
X0039222Y0038757D01*
X0039205Y0038846D01*
X0039192Y0038936D01*
X0039183Y0039026D01*
X0039177Y0039117D01*
X0039175Y0039208D01*
X0035575Y0036008D02*
X0035577Y0035908D01*
X0035583Y0035809D01*
X0035592Y0035710D01*
X0035605Y0035611D01*
X0035623Y0035513D01*
X0035643Y0035416D01*
X0035668Y0035319D01*
X0035696Y0035224D01*
X0035728Y0035129D01*
X0035763Y0035036D01*
X0035802Y0034944D01*
X0035845Y0034854D01*
X0035891Y0034766D01*
X0035940Y0034679D01*
X0035993Y0034595D01*
X0036048Y0034512D01*
X0036107Y0034432D01*
X0036169Y0034354D01*
X0036234Y0034278D01*
X0036302Y0034205D01*
X0036372Y0034135D01*
X0036445Y0034067D01*
X0036521Y0034002D01*
X0036599Y0033940D01*
X0036679Y0033881D01*
X0036762Y0033826D01*
X0036846Y0033773D01*
X0036933Y0033724D01*
X0037021Y0033678D01*
X0037111Y0033635D01*
X0037203Y0033596D01*
X0037296Y0033561D01*
X0037391Y0033529D01*
X0037486Y0033501D01*
X0037583Y0033476D01*
X0037680Y0033456D01*
X0037778Y0033438D01*
X0037877Y0033425D01*
X0037976Y0033416D01*
X0038075Y0033410D01*
X0038175Y0033408D01*
X0061375Y0033408D01*
X0061470Y0033410D01*
X0061565Y0033416D01*
X0061659Y0033426D01*
X0061754Y0033439D01*
X0061847Y0033457D01*
X0061940Y0033478D01*
X0062031Y0033504D01*
X0062122Y0033533D01*
X0062211Y0033565D01*
X0062299Y0033602D01*
X0062385Y0033642D01*
X0062470Y0033685D01*
X0062552Y0033732D01*
X0062633Y0033783D01*
X0062711Y0033836D01*
X0062788Y0033893D01*
X0062861Y0033953D01*
X0062933Y0034016D01*
X0063001Y0034082D01*
X0063067Y0034150D01*
X0063130Y0034222D01*
X0063190Y0034295D01*
X0063247Y0034372D01*
X0063300Y0034450D01*
X0063351Y0034531D01*
X0063398Y0034613D01*
X0063441Y0034698D01*
X0063481Y0034784D01*
X0063518Y0034872D01*
X0063550Y0034961D01*
X0063579Y0035052D01*
X0063605Y0035143D01*
X0063626Y0035236D01*
X0063644Y0035329D01*
X0063657Y0035424D01*
X0063667Y0035518D01*
X0063673Y0035613D01*
X0063675Y0035708D01*
X0063675Y0036008D02*
X0063675Y0076208D01*
X0061975Y0075308D02*
X0061975Y0037708D01*
X0060175Y0038608D02*
X0060175Y0074708D01*
X0061975Y0075308D02*
X0061973Y0075406D01*
X0061967Y0075504D01*
X0061958Y0075602D01*
X0061944Y0075699D01*
X0061927Y0075796D01*
X0061906Y0075892D01*
X0061881Y0075987D01*
X0061853Y0076081D01*
X0061820Y0076173D01*
X0061785Y0076265D01*
X0061745Y0076355D01*
X0061703Y0076443D01*
X0061656Y0076530D01*
X0061607Y0076614D01*
X0061554Y0076697D01*
X0061498Y0076777D01*
X0061438Y0076856D01*
X0061376Y0076932D01*
X0061311Y0077005D01*
X0061243Y0077076D01*
X0061172Y0077144D01*
X0061099Y0077209D01*
X0061023Y0077271D01*
X0060944Y0077331D01*
X0060864Y0077387D01*
X0060781Y0077440D01*
X0060697Y0077489D01*
X0060610Y0077536D01*
X0060522Y0077578D01*
X0060432Y0077618D01*
X0060340Y0077653D01*
X0060248Y0077686D01*
X0060154Y0077714D01*
X0060059Y0077739D01*
X0059963Y0077760D01*
X0059866Y0077777D01*
X0059769Y0077791D01*
X0059671Y0077800D01*
X0059573Y0077806D01*
X0059475Y0077808D01*
X0041275Y0077808D01*
X0040475Y0079608D02*
X0040364Y0079606D01*
X0040254Y0079600D01*
X0040144Y0079590D01*
X0040034Y0079576D01*
X0039925Y0079559D01*
X0039816Y0079537D01*
X0039708Y0079512D01*
X0039602Y0079482D01*
X0039496Y0079449D01*
X0039392Y0079413D01*
X0039289Y0079372D01*
X0039187Y0079328D01*
X0039087Y0079280D01*
X0038989Y0079229D01*
X0038893Y0079174D01*
X0038799Y0079116D01*
X0038707Y0079054D01*
X0038617Y0078990D01*
X0038530Y0078922D01*
X0038445Y0078851D01*
X0038363Y0078777D01*
X0038283Y0078700D01*
X0038206Y0078620D01*
X0038132Y0078538D01*
X0038061Y0078453D01*
X0037993Y0078366D01*
X0037929Y0078276D01*
X0037867Y0078184D01*
X0037809Y0078090D01*
X0037754Y0077994D01*
X0037703Y0077896D01*
X0037655Y0077796D01*
X0037611Y0077694D01*
X0037570Y0077591D01*
X0037534Y0077487D01*
X0037501Y0077381D01*
X0037471Y0077275D01*
X0037446Y0077167D01*
X0037424Y0077058D01*
X0037407Y0076949D01*
X0037393Y0076839D01*
X0037383Y0076729D01*
X0037377Y0076619D01*
X0037375Y0076508D01*
X0035575Y0078608D02*
X0035577Y0078713D01*
X0035583Y0078817D01*
X0035593Y0078922D01*
X0035606Y0079025D01*
X0035624Y0079129D01*
X0035645Y0079231D01*
X0035670Y0079333D01*
X0035699Y0079433D01*
X0035732Y0079533D01*
X0035769Y0079631D01*
X0035809Y0079728D01*
X0035852Y0079823D01*
X0035899Y0079916D01*
X0035950Y0080008D01*
X0036004Y0080098D01*
X0036062Y0080185D01*
X0036122Y0080271D01*
X0036186Y0080354D01*
X0036253Y0080434D01*
X0036322Y0080512D01*
X0036395Y0080588D01*
X0036471Y0080661D01*
X0036549Y0080730D01*
X0036629Y0080797D01*
X0036712Y0080861D01*
X0036798Y0080921D01*
X0036885Y0080979D01*
X0036975Y0081033D01*
X0037067Y0081084D01*
X0037160Y0081131D01*
X0037255Y0081174D01*
X0037352Y0081214D01*
X0037450Y0081251D01*
X0037550Y0081284D01*
X0037650Y0081313D01*
X0037752Y0081338D01*
X0037854Y0081359D01*
X0037958Y0081377D01*
X0038061Y0081390D01*
X0038166Y0081400D01*
X0038270Y0081406D01*
X0038375Y0081408D01*
X0062375Y0081408D01*
X0062475Y0081308D01*
X0064875Y0083108D02*
X0064972Y0083106D01*
X0065068Y0083100D01*
X0065164Y0083091D01*
X0065260Y0083077D01*
X0065355Y0083059D01*
X0065449Y0083038D01*
X0065543Y0083013D01*
X0065635Y0082984D01*
X0065726Y0082952D01*
X0065816Y0082916D01*
X0065904Y0082876D01*
X0065990Y0082833D01*
X0066075Y0082786D01*
X0066158Y0082736D01*
X0066238Y0082683D01*
X0066317Y0082627D01*
X0066393Y0082567D01*
X0066466Y0082504D01*
X0066538Y0082439D01*
X0066606Y0082371D01*
X0066671Y0082299D01*
X0066734Y0082226D01*
X0066794Y0082150D01*
X0066850Y0082071D01*
X0066903Y0081991D01*
X0066953Y0081908D01*
X0067000Y0081823D01*
X0067043Y0081737D01*
X0067083Y0081649D01*
X0067119Y0081559D01*
X0067151Y0081468D01*
X0067180Y0081376D01*
X0067205Y0081282D01*
X0067226Y0081188D01*
X0067244Y0081093D01*
X0067258Y0080997D01*
X0067267Y0080901D01*
X0067273Y0080805D01*
X0067275Y0080708D01*
X0070875Y0085008D02*
X0070875Y0027708D01*
X0070873Y0027632D01*
X0070867Y0027556D01*
X0070858Y0027481D01*
X0070844Y0027406D01*
X0070827Y0027332D01*
X0070806Y0027259D01*
X0070782Y0027187D01*
X0070753Y0027116D01*
X0070722Y0027047D01*
X0070687Y0026980D01*
X0070648Y0026915D01*
X0070606Y0026851D01*
X0070561Y0026790D01*
X0070513Y0026731D01*
X0070462Y0026675D01*
X0070408Y0026621D01*
X0070352Y0026570D01*
X0070293Y0026522D01*
X0070232Y0026477D01*
X0070168Y0026435D01*
X0070103Y0026396D01*
X0070036Y0026361D01*
X0069967Y0026330D01*
X0069896Y0026301D01*
X0069824Y0026277D01*
X0069751Y0026256D01*
X0069677Y0026239D01*
X0069602Y0026225D01*
X0069527Y0026216D01*
X0069451Y0026210D01*
X0069375Y0026208D01*
X0029775Y0026208D01*
X0029702Y0026210D01*
X0029629Y0026216D01*
X0029556Y0026225D01*
X0029484Y0026239D01*
X0029413Y0026256D01*
X0029342Y0026277D01*
X0029273Y0026301D01*
X0029206Y0026329D01*
X0029139Y0026361D01*
X0029075Y0026396D01*
X0029013Y0026434D01*
X0028952Y0026475D01*
X0028894Y0026520D01*
X0028838Y0026568D01*
X0028785Y0026618D01*
X0028735Y0026671D01*
X0028687Y0026727D01*
X0028642Y0026785D01*
X0028601Y0026846D01*
X0028563Y0026908D01*
X0028528Y0026972D01*
X0028496Y0027039D01*
X0028468Y0027106D01*
X0028444Y0027175D01*
X0028423Y0027246D01*
X0028406Y0027317D01*
X0028392Y0027389D01*
X0028383Y0027462D01*
X0028377Y0027535D01*
X0028375Y0027608D01*
X0042775Y0062308D02*
X0044675Y0062308D01*
X0051075Y0068708D01*
X0051075Y0071408D01*
X0051475Y0071808D01*
X0048775Y0071505D02*
X0048775Y0074208D01*
X0048875Y0074308D01*
X0048775Y0071505D02*
X0043726Y0066457D01*
X0039175Y0075708D02*
X0039177Y0075797D01*
X0039183Y0075886D01*
X0039192Y0075975D01*
X0039205Y0076063D01*
X0039222Y0076150D01*
X0039243Y0076237D01*
X0039267Y0076323D01*
X0039295Y0076408D01*
X0039326Y0076491D01*
X0039361Y0076573D01*
X0039400Y0076653D01*
X0039442Y0076732D01*
X0039487Y0076809D01*
X0039535Y0076884D01*
X0039587Y0076957D01*
X0039641Y0077027D01*
X0039699Y0077095D01*
X0039759Y0077161D01*
X0039822Y0077224D01*
X0039888Y0077284D01*
X0039956Y0077342D01*
X0040026Y0077396D01*
X0040099Y0077448D01*
X0040174Y0077496D01*
X0040251Y0077541D01*
X0040330Y0077583D01*
X0040410Y0077622D01*
X0040492Y0077657D01*
X0040575Y0077688D01*
X0040660Y0077716D01*
X0040746Y0077740D01*
X0040833Y0077761D01*
X0040920Y0077778D01*
X0041008Y0077791D01*
X0041097Y0077800D01*
X0041186Y0077806D01*
X0041275Y0077808D01*
X0040475Y0079608D02*
X0060275Y0079608D01*
X0062475Y0081308D02*
X0062582Y0081306D01*
X0062689Y0081300D01*
X0062796Y0081291D01*
X0062902Y0081277D01*
X0063008Y0081260D01*
X0063113Y0081239D01*
X0063217Y0081215D01*
X0063320Y0081186D01*
X0063422Y0081154D01*
X0063523Y0081119D01*
X0063623Y0081080D01*
X0063721Y0081037D01*
X0063818Y0080991D01*
X0063913Y0080941D01*
X0064006Y0080888D01*
X0064097Y0080832D01*
X0064186Y0080772D01*
X0064273Y0080710D01*
X0064357Y0080644D01*
X0064440Y0080575D01*
X0064519Y0080504D01*
X0064596Y0080429D01*
X0064671Y0080352D01*
X0064742Y0080273D01*
X0064811Y0080190D01*
X0064877Y0080106D01*
X0064939Y0080019D01*
X0064999Y0079930D01*
X0065055Y0079839D01*
X0065108Y0079746D01*
X0065158Y0079651D01*
X0065204Y0079554D01*
X0065247Y0079456D01*
X0065286Y0079356D01*
X0065321Y0079255D01*
X0065353Y0079153D01*
X0065382Y0079050D01*
X0065406Y0078946D01*
X0065427Y0078841D01*
X0065444Y0078735D01*
X0065458Y0078629D01*
X0065467Y0078522D01*
X0065473Y0078415D01*
X0065475Y0078308D01*
X0063675Y0076208D02*
X0063673Y0076322D01*
X0063667Y0076435D01*
X0063658Y0076548D01*
X0063645Y0076661D01*
X0063628Y0076774D01*
X0063607Y0076885D01*
X0063582Y0076996D01*
X0063554Y0077106D01*
X0063522Y0077215D01*
X0063487Y0077323D01*
X0063448Y0077430D01*
X0063405Y0077535D01*
X0063359Y0077639D01*
X0063310Y0077741D01*
X0063257Y0077842D01*
X0063200Y0077941D01*
X0063141Y0078037D01*
X0063078Y0078132D01*
X0063012Y0078225D01*
X0062943Y0078315D01*
X0062871Y0078403D01*
X0062797Y0078489D01*
X0062719Y0078572D01*
X0062639Y0078652D01*
X0062556Y0078730D01*
X0062470Y0078804D01*
X0062382Y0078876D01*
X0062292Y0078945D01*
X0062199Y0079011D01*
X0062104Y0079074D01*
X0062008Y0079133D01*
X0061909Y0079190D01*
X0061808Y0079243D01*
X0061706Y0079292D01*
X0061602Y0079338D01*
X0061497Y0079381D01*
X0061390Y0079420D01*
X0061282Y0079455D01*
X0061173Y0079487D01*
X0061063Y0079515D01*
X0060952Y0079540D01*
X0060841Y0079561D01*
X0060728Y0079578D01*
X0060615Y0079591D01*
X0060502Y0079600D01*
X0060389Y0079606D01*
X0060275Y0079608D01*
X0058875Y0076008D02*
X0058775Y0075908D01*
X0055575Y0075908D01*
X0058875Y0076008D02*
X0058945Y0076006D01*
X0059016Y0076000D01*
X0059085Y0075991D01*
X0059154Y0075978D01*
X0059223Y0075961D01*
X0059290Y0075940D01*
X0059356Y0075916D01*
X0059421Y0075888D01*
X0059484Y0075857D01*
X0059545Y0075822D01*
X0059605Y0075784D01*
X0059662Y0075743D01*
X0059717Y0075699D01*
X0059769Y0075652D01*
X0059819Y0075602D01*
X0059866Y0075550D01*
X0059910Y0075495D01*
X0059951Y0075438D01*
X0059989Y0075378D01*
X0060024Y0075317D01*
X0060055Y0075254D01*
X0060083Y0075189D01*
X0060107Y0075123D01*
X0060128Y0075056D01*
X0060145Y0074987D01*
X0060158Y0074918D01*
X0060167Y0074849D01*
X0060173Y0074778D01*
X0060175Y0074708D01*
X0055575Y0075908D02*
X0055449Y0075906D01*
X0055323Y0075900D01*
X0055197Y0075891D01*
X0055071Y0075877D01*
X0054946Y0075859D01*
X0054822Y0075838D01*
X0054698Y0075813D01*
X0054575Y0075784D01*
X0054453Y0075751D01*
X0054332Y0075715D01*
X0054212Y0075675D01*
X0054094Y0075631D01*
X0053977Y0075584D01*
X0053861Y0075533D01*
X0053747Y0075478D01*
X0053635Y0075420D01*
X0053525Y0075359D01*
X0053417Y0075294D01*
X0053310Y0075226D01*
X0053206Y0075154D01*
X0053104Y0075080D01*
X0053005Y0075002D01*
X0052907Y0074922D01*
X0052813Y0074838D01*
X0052721Y0074751D01*
X0052632Y0074662D01*
X0052545Y0074570D01*
X0052461Y0074476D01*
X0052381Y0074378D01*
X0052303Y0074279D01*
X0052229Y0074177D01*
X0052157Y0074073D01*
X0052089Y0073966D01*
X0052024Y0073858D01*
X0051963Y0073748D01*
X0051905Y0073636D01*
X0051850Y0073522D01*
X0051799Y0073406D01*
X0051752Y0073289D01*
X0051708Y0073171D01*
X0051668Y0073051D01*
X0051632Y0072930D01*
X0051599Y0072808D01*
X0051570Y0072685D01*
X0051545Y0072561D01*
X0051524Y0072437D01*
X0051506Y0072312D01*
X0051492Y0072186D01*
X0051483Y0072060D01*
X0051477Y0071934D01*
X0051475Y0071808D01*
X0068564Y0092808D02*
X0027175Y0092808D01*
X0027075Y0092806D01*
X0026976Y0092800D01*
X0026877Y0092791D01*
X0026778Y0092778D01*
X0026680Y0092760D01*
X0026583Y0092740D01*
X0026486Y0092715D01*
X0026391Y0092687D01*
X0026296Y0092655D01*
X0026203Y0092620D01*
X0026111Y0092581D01*
X0026021Y0092538D01*
X0025933Y0092492D01*
X0025846Y0092443D01*
X0025762Y0092390D01*
X0025679Y0092335D01*
X0025599Y0092276D01*
X0025521Y0092214D01*
X0025445Y0092149D01*
X0025372Y0092081D01*
X0025302Y0092011D01*
X0025234Y0091938D01*
X0025169Y0091862D01*
X0025107Y0091784D01*
X0025048Y0091704D01*
X0024993Y0091621D01*
X0024940Y0091537D01*
X0024891Y0091450D01*
X0024845Y0091362D01*
X0024802Y0091272D01*
X0024763Y0091180D01*
X0024728Y0091087D01*
X0024696Y0090992D01*
X0024668Y0090897D01*
X0024643Y0090800D01*
X0024623Y0090703D01*
X0024605Y0090605D01*
X0024592Y0090506D01*
X0024583Y0090407D01*
X0024577Y0090308D01*
X0024575Y0090208D01*
X0060175Y0038608D02*
X0060173Y0038529D01*
X0060167Y0038451D01*
X0060158Y0038373D01*
X0060144Y0038296D01*
X0060127Y0038219D01*
X0060106Y0038144D01*
X0060081Y0038069D01*
X0060053Y0037996D01*
X0060021Y0037924D01*
X0059986Y0037854D01*
X0059947Y0037785D01*
X0059905Y0037719D01*
X0059860Y0037655D01*
X0059812Y0037593D01*
X0059761Y0037534D01*
X0059706Y0037477D01*
X0059649Y0037422D01*
X0059590Y0037371D01*
X0059528Y0037323D01*
X0059464Y0037278D01*
X0059398Y0037236D01*
X0059329Y0037197D01*
X0059259Y0037162D01*
X0059187Y0037130D01*
X0059114Y0037102D01*
X0059039Y0037077D01*
X0058964Y0037056D01*
X0058887Y0037039D01*
X0058810Y0037025D01*
X0058732Y0037016D01*
X0058654Y0037010D01*
X0058575Y0037008D01*
X0059475Y0035208D02*
X0059573Y0035210D01*
X0059671Y0035216D01*
X0059769Y0035225D01*
X0059866Y0035239D01*
X0059963Y0035256D01*
X0060059Y0035277D01*
X0060154Y0035302D01*
X0060248Y0035330D01*
X0060340Y0035363D01*
X0060432Y0035398D01*
X0060522Y0035438D01*
X0060610Y0035480D01*
X0060697Y0035527D01*
X0060781Y0035576D01*
X0060864Y0035629D01*
X0060944Y0035685D01*
X0061023Y0035745D01*
X0061099Y0035807D01*
X0061172Y0035872D01*
X0061243Y0035940D01*
X0061311Y0036011D01*
X0061376Y0036084D01*
X0061438Y0036160D01*
X0061498Y0036239D01*
X0061554Y0036319D01*
X0061607Y0036402D01*
X0061656Y0036486D01*
X0061703Y0036573D01*
X0061745Y0036661D01*
X0061785Y0036751D01*
X0061820Y0036843D01*
X0061853Y0036935D01*
X0061881Y0037029D01*
X0061906Y0037124D01*
X0061927Y0037220D01*
X0061944Y0037317D01*
X0061958Y0037414D01*
X0061967Y0037512D01*
X0061973Y0037610D01*
X0061975Y0037708D01*
X0072675Y0085908D02*
X0072673Y0086008D01*
X0072667Y0086107D01*
X0072658Y0086206D01*
X0072645Y0086305D01*
X0072627Y0086403D01*
X0072607Y0086500D01*
X0072582Y0086597D01*
X0072554Y0086692D01*
X0072522Y0086787D01*
X0072487Y0086880D01*
X0072448Y0086972D01*
X0072405Y0087062D01*
X0072359Y0087150D01*
X0072310Y0087237D01*
X0072257Y0087321D01*
X0072202Y0087404D01*
X0072143Y0087484D01*
X0072081Y0087562D01*
X0072016Y0087638D01*
X0071948Y0087711D01*
X0071878Y0087781D01*
X0071805Y0087849D01*
X0071729Y0087914D01*
X0071651Y0087976D01*
X0071571Y0088035D01*
X0071488Y0088090D01*
X0071404Y0088143D01*
X0071317Y0088192D01*
X0071229Y0088238D01*
X0071139Y0088281D01*
X0071047Y0088320D01*
X0070954Y0088355D01*
X0070859Y0088387D01*
X0070764Y0088415D01*
X0070667Y0088440D01*
X0070570Y0088460D01*
X0070472Y0088478D01*
X0070373Y0088491D01*
X0070274Y0088500D01*
X0070175Y0088506D01*
X0070075Y0088508D01*
X0070575Y0090308D02*
X0070698Y0090306D01*
X0070820Y0090300D01*
X0070942Y0090291D01*
X0071064Y0090277D01*
X0071185Y0090260D01*
X0071306Y0090239D01*
X0071426Y0090214D01*
X0071545Y0090185D01*
X0071663Y0090153D01*
X0071780Y0090117D01*
X0071896Y0090077D01*
X0072011Y0090034D01*
X0072124Y0089987D01*
X0072236Y0089937D01*
X0072346Y0089883D01*
X0072454Y0089826D01*
X0072560Y0089765D01*
X0072665Y0089701D01*
X0072767Y0089634D01*
X0072867Y0089563D01*
X0072965Y0089490D01*
X0073061Y0089413D01*
X0073154Y0089333D01*
X0073245Y0089251D01*
X0073333Y0089166D01*
X0073418Y0089078D01*
X0073500Y0088987D01*
X0073580Y0088894D01*
X0073657Y0088798D01*
X0073730Y0088700D01*
X0073801Y0088600D01*
X0073868Y0088498D01*
X0073932Y0088393D01*
X0073993Y0088287D01*
X0074050Y0088179D01*
X0074104Y0088069D01*
X0074154Y0087957D01*
X0074201Y0087844D01*
X0074244Y0087729D01*
X0074284Y0087613D01*
X0074320Y0087496D01*
X0074352Y0087378D01*
X0074381Y0087259D01*
X0074406Y0087139D01*
X0074427Y0087018D01*
X0074444Y0086897D01*
X0074458Y0086775D01*
X0074467Y0086653D01*
X0074473Y0086531D01*
X0074475Y0086408D01*
X0068575Y0092819D02*
X0068564Y0092808D01*
M02*
