G75*
%MOIN*%
%OFA0B0*%
%FSLAX25Y25*%
%IPPOS*%
%LPD*%
%AMOC8*
5,1,8,0,0,1.08239X$1,22.5*
%
%ADD10R,0.07099X0.07887*%
%ADD11R,0.04737X0.05131*%
%ADD12R,0.07099X0.06312*%
%ADD13R,0.05131X0.04737*%
%ADD14R,0.02000X0.06300*%
%ADD15R,0.07100X0.09500*%
%ADD16R,0.03200X0.09500*%
%ADD17R,0.02965X0.02178*%
%ADD18R,0.05224X0.02769*%
%ADD19R,0.02769X0.05224*%
%ADD20C,0.03778*%
D10*
X0028263Y0089308D03*
X0039287Y0089308D03*
D11*
X0046775Y0091654D03*
X0046775Y0084962D03*
X0052275Y0051654D03*
X0057775Y0051654D03*
X0057775Y0044962D03*
X0052275Y0044962D03*
X0063775Y0044962D03*
X0063775Y0051654D03*
D12*
X0071775Y0050820D03*
X0071775Y0039796D03*
D13*
X0034121Y0083308D03*
X0027428Y0083308D03*
D14*
X0034975Y0036908D03*
X0036975Y0036908D03*
X0038975Y0036908D03*
X0040875Y0036908D03*
X0042875Y0036908D03*
X0044875Y0036908D03*
X0046775Y0036908D03*
X0048775Y0036908D03*
X0050775Y0036908D03*
X0052775Y0036908D03*
X0054675Y0036908D03*
X0056675Y0036908D03*
X0058675Y0036908D03*
X0060575Y0036908D03*
X0062575Y0036908D03*
X0064575Y0036908D03*
D15*
X0024575Y0027208D03*
X0074975Y0027208D03*
D16*
X0044775Y0047508D03*
X0039775Y0047508D03*
X0034775Y0047508D03*
X0029775Y0047508D03*
X0029775Y0074008D03*
X0034775Y0074008D03*
X0039775Y0074008D03*
X0044775Y0074008D03*
D17*
X0050212Y0067147D03*
X0050212Y0064588D03*
X0050212Y0062028D03*
X0050212Y0062028D03*
X0050212Y0059469D03*
X0067338Y0059469D03*
X0067338Y0062028D03*
X0067338Y0064588D03*
X0067338Y0067147D03*
D18*
X0063255Y0073434D03*
X0063255Y0076584D03*
X0063255Y0079733D03*
X0063255Y0082883D03*
X0063255Y0086032D03*
X0063255Y0089182D03*
X0054324Y0089182D03*
X0054294Y0086032D03*
X0054294Y0082883D03*
X0054294Y0079733D03*
X0054294Y0076584D03*
X0054294Y0073434D03*
D19*
X0058775Y0073040D03*
X0058775Y0089576D03*
D20*
X0068575Y0092819D03*
X0057286Y0068308D03*
X0055775Y0060808D03*
X0048875Y0074308D03*
X0043726Y0066457D03*
X0042775Y0062308D03*
M02*
